<svg id="Capa_1" data-name="Capa 1" xmlns="http://www.w3.org/2000/svg" viewBox="0 0 268 216"><defs><style>.cls-1{fill:#ffd05d;}.cls-2{fill:#fdc453;}.cls-3{fill:#ffd77f;}.cls-4{fill:#303030;}.cls-5{fill:#695342;}.cls-6{fill:#f06669;}</style></defs><title>Mesa de trabajo 1</title><circle class="cls-1" cx="130.94" cy="97.22" r="85.24" transform="translate(-30.39 121.06) rotate(-45)"/><path class="cls-2" d="M175.53,24.47A85.25,85.25,0,0,1,59.11,143,85.24,85.24,0,1,0,175.53,24.47Z"/><path class="cls-3" d="M57.29,106.21A79.13,79.13,0,0,1,199.16,58,79.14,79.14,0,1,0,67.8,145.65,78.75,78.75,0,0,1,57.29,106.21Z"/><path class="cls-4" d="M105.82,76.54c0,5.85-2.81,10.58-6.28,10.58s-6.28-4.73-6.28-10.58S96.07,66,99.54,66,105.82,70.69,105.82,76.54Z"/><path class="cls-4" d="M168.62,76.54c0,5.85-2.81,10.58-6.28,10.58s-6.28-4.73-6.28-10.58S158.87,66,162.34,66,168.62,70.69,168.62,76.54Z"/><path class="cls-5" d="M73.66,105.28a57.65,57.65,0,0,0,114.55,0Z"/><path class="cls-6" d="M91.38,140.66a57.59,57.59,0,0,0,77.77,1.24l-.53-1.24C130.16,121.91,91.9,140.4,91.38,140.66Z"/></svg>