<svg id="Capa_1" data-name="Capa 1" xmlns="http://www.w3.org/2000/svg" viewBox="0 0 268 216"><defs><style>.cls-1{fill:#ffd05d;}.cls-2{fill:#fdc453;}.cls-3{fill:#ffd77f;}.cls-4{fill:#fff;}.cls-5{fill:#303030;}.cls-6{fill:#5e4939;}</style></defs><title>Mesa de trabajo 1</title><circle class="cls-1" cx="140.06" cy="108.18" r="85.24" transform="translate(-35.47 130.72) rotate(-45)"/><path class="cls-2" d="M184.66,35.43A85.25,85.25,0,0,1,68.23,154,85.25,85.25,0,1,0,184.66,35.43Z"/><path class="cls-3" d="M66.41,117.17A79.14,79.14,0,0,1,208.28,68.93,79.14,79.14,0,1,0,76.93,156.62,78.76,78.76,0,0,1,66.41,117.17Z"/><circle class="cls-4" cx="101.79" cy="92.62" r="19.54" transform="translate(-5.94 178.26) rotate(-80.78)"/><path class="cls-5" d="M115.49,78.7a19.46,19.46,0,0,0-23.57-2.92,4.9,4.9,0,0,0-1.06,2.52c-.38,4.08,4.88,7.91,11.75,8.55s12.75-2.14,13.14-6.21A4.59,4.59,0,0,0,115.49,78.7Z"/><circle class="cls-4" cx="178.33" cy="92.62" r="19.54" transform="translate(-13.26 153.23) rotate(-45)"/><path class="cls-5" d="M192,78.7a19.48,19.48,0,0,0-23.58-2.92,4.8,4.8,0,0,0-1.05,2.52c-.39,4.08,4.87,7.91,11.75,8.55s12.75-2.14,13.13-6.21A4.75,4.75,0,0,0,192,78.7Z"/><path class="cls-6" d="M171.78,127.72a34.31,34.31,0,0,0-16.11-8.58,43.59,43.59,0,0,0-18.38-.33,46,46,0,0,0-16.88,7,39.89,39.89,0,0,0-12.4,13,2,2,0,0,0,1.74,3,2,2,0,0,0,.88-.21l1.87-.92c4.39-2.17,8.53-4.23,12.74-5.87a79.62,79.62,0,0,1,14.33-4.25,70.68,70.68,0,0,1,14.76-1.27A93.05,93.05,0,0,1,170,131.1a2,2,0,0,0,1.77-3.38Z"/></svg>