<svg id="Capa_1" data-name="Capa 1" xmlns="http://www.w3.org/2000/svg" viewBox="0 0 268 216"><defs><style>.cls-1{fill:#f94343;}.cls-2{fill:#e53939;}.cls-3{fill:#f76363;}.cls-4{fill:#fff;}</style></defs><title>Mesa de trabajo 1</title><circle class="cls-1" cx="134.06" cy="98.15" r="85.24" transform="translate(-30.13 123.54) rotate(-45)"/><path class="cls-2" d="M178.66,25.4A85.26,85.26,0,0,1,62.23,144,85.25,85.25,0,1,0,178.66,25.4Z"/><path class="cls-3" d="M60.41,107.14A79.13,79.13,0,0,1,202.28,58.9,79.14,79.14,0,1,0,70.93,146.58,78.75,78.75,0,0,1,60.41,107.14Z"/><path class="cls-4" d="M184.22,88.22V88c0-15-10.84-28.72-27.14-28.72-13,0-20.46,9.31-23,18h0c-2.56-8.71-10.07-18-23-18C94.74,59.27,83.9,73,83.9,88a1.77,1.77,0,0,0,0,.23c-.09,3.26,0,36.45,50.14,63.49h0C184.22,124.67,184.3,91.48,184.22,88.22Z"/></svg>