<svg id="Capa_1" data-name="Capa 1" xmlns="http://www.w3.org/2000/svg" viewBox="0 0 268 216"><defs><style>.cls-1{fill:#ffd05d;}.cls-2{fill:#fdc453;}.cls-3{fill:#ffd77f;}.cls-4{fill:#303030;}.cls-5{fill:#414042;}.cls-6{fill:#5e4939;}</style></defs><title>Mesa de trabajo 1</title><circle class="cls-1" cx="127.36" cy="108.22" r="85.24" transform="translate(-39.22 121.76) rotate(-45)"/><path class="cls-2" d="M172,35.47A85.25,85.25,0,0,1,55.54,154,85.24,85.24,0,1,0,172,35.47Z"/><path class="cls-3" d="M53.71,117.21A79.13,79.13,0,0,1,195.58,69,79.14,79.14,0,1,0,64.23,156.65,78.75,78.75,0,0,1,53.71,117.21Z"/><path class="cls-4" d="M102.24,87.54c0,5.85-2.81,10.58-6.28,10.58s-6.28-4.73-6.28-10.58S92.49,77,96,77,102.24,81.69,102.24,87.54Z"/><path class="cls-4" d="M165.05,87.54c0,5.85-2.82,10.58-6.28,10.58s-6.29-4.73-6.29-10.58S155.3,77,158.77,77,165.05,81.69,165.05,87.54Z"/><path class="cls-5" d="M177.71,69.67,175,68.91c-1.91-.54-3.72-1-5.47-1.65a48.42,48.42,0,0,1-7.18-3.05,43.84,43.84,0,0,1-6.5-4.21,64.4,64.4,0,0,1-6.17-5.67.38.38,0,0,0-.64.28,16.36,16.36,0,0,0,3.33,8.7,21.38,21.38,0,0,0,7.22,6.14,22.47,22.47,0,0,0,8.71,2.5l.35,0a18.76,18.76,0,0,0,9.09-1.61A.39.39,0,0,0,178,70,.38.38,0,0,0,177.71,69.67Z"/><path class="cls-5" d="M77,69.67c.91-.27,1.81-.52,2.68-.76,1.91-.54,3.72-1,5.47-1.65a48.42,48.42,0,0,0,7.18-3.05A43.23,43.23,0,0,0,98.84,60,64.53,64.53,0,0,0,105,54.33a.37.37,0,0,1,.41-.07.36.36,0,0,1,.22.35,16.2,16.2,0,0,1-3.33,8.7,21.25,21.25,0,0,1-7.21,6.14A22.52,22.52,0,0,1,86.4,72l-.35,0A18.74,18.74,0,0,1,77,70.36a.37.37,0,0,1-.21-.36A.36.36,0,0,1,77,69.67Z"/><path class="cls-6" d="M95.13,144.9c-.89.1-1.4-1-1.39-1.83a26,26,0,0,1,3-11.5,32.25,32.25,0,0,1,7.68-9.49,36.46,36.46,0,0,1,22.94-8.32,34.73,34.73,0,0,1,23.1,8.27c6.46,5.54,10.4,13.39,10.53,21,0,.87-.58,2-1.55,1.82-.8-.14-1.45-1.23-2-1.72-.91-.76-1.85-1.47-2.82-2.15a54.84,54.84,0,0,0-6-3.7,45.31,45.31,0,0,0-25.1-5.54,43.22,43.22,0,0,0-15.89,4.68,55.86,55.86,0,0,0-8.44,5.38c-1,.76-2.66,2.83-3.9,3.07Z"/></svg>